<svg width="75" height="75" viewBox="0 0 75 75" fill="none" xmlns="http://www.w3.org/2000/svg">
<rect width="75" height="75" fill="#F5F5F5"/>
<g id="Service | Body Slider #6">
<rect width="1366" height="5174" transform="translate(-507 -796)" fill="#0C1218"/>
<g id="Quick action">
<g id="contact">
<g clip-path="url(#clip0_0_1)">
<g id="Rectangle 6" filter="url(#filter0_f_0_1)">
<rect x="-95.8614" y="-284" width="364.989" height="364.989" rx="163.5" transform="rotate(22.0132 -95.8614 -284)" fill="#062D53"/>
</g>
<g id="Iconly/Glass/Message">
<g id="Iconly/Glass/Clock">
<g id="Clock">
<g id="Bg">
<path id="Fill 3" d="M42.1725 17.7806L25.9455 22.0398C19.6007 23.7052 16.5269 29.1889 18.3022 35.6792L22.3995 50.6584C24.1698 57.1304 29.6307 60.3739 35.9755 58.7085L52.2025 54.4492C58.5474 52.7838 61.6024 47.3051 59.8321 40.833L55.7348 25.8539C53.9595 19.3636 48.5173 16.1152 42.1725 17.7806" fill="url(#paint0_linear_0_1)"/>
<g id="Rectangle 1034" opacity="0.5" filter="url(#filter1_f_0_1)">
<rect x="28.1758" y="52.8744" width="25.4629" height="26.5139" rx="12.7315" transform="rotate(-105 28.1758 52.8744)" fill="#8237FF"/>
</g>
</g>
<g id="Icon">
<g id="Fill 3_2" filter="url(#filter2_b_0_1)">
<path d="M60.0029 27.7411H40.8594C33.3742 27.7411 28.3399 32.8889 28.3399 40.5458V58.2172C28.3399 65.8525 33.3742 71.0003 40.8594 71.0003H60.0029C67.4881 71.0003 72.5004 65.8525 72.5004 58.2172V40.5458C72.5004 32.8889 67.4881 27.7411 60.0029 27.7411Z" fill="#BA90FF" fill-opacity="0.35"/>
<path d="M60.0029 27.2411H40.8594C36.9986 27.2411 33.7344 28.5712 31.4352 30.9226C29.137 33.273 27.8399 36.606 27.8399 40.5458V58.2172C27.8399 62.1466 29.1372 65.4742 31.4354 67.8218C33.7345 70.1703 36.9987 71.5003 40.8594 71.5003H60.0029C63.8638 71.5003 67.1226 70.1702 69.4163 67.8213C71.709 65.4735 73.0004 62.146 73.0004 58.2172V40.5458C73.0004 36.6066 71.7092 33.2737 69.4165 30.923C67.1228 28.5712 63.8638 27.2411 60.0029 27.2411Z" stroke="url(#paint1_linear_0_1)" stroke-linecap="round" stroke-linejoin="round"/>
</g>
<g id="Union" filter="url(#filter3_bd_0_1)">
<mask id="path-8-inside-1_0_1" fill="white">
<path fill-rule="evenodd" clip-rule="evenodd" d="M57.4617 57.3943C57.7288 57.5479 58.0203 57.6215 58.3095 57.6215C58.8726 57.6215 59.4224 57.3381 59.7337 56.8298C59.8919 56.5695 59.9672 56.2835 59.9671 56.0012C59.9674 55.448 59.6787 54.9085 59.1596 54.6034L51.2991 50.0115L51.2991 40.0171C51.2991 39.1217 50.5572 38.3949 49.643 38.3949C48.7289 38.3949 47.987 39.1217 47.987 40.0171V50.9329V50.9336C47.987 51.5046 48.2939 52.0345 48.793 52.3287L57.4617 57.3943Z"/>
</mask>
<path fill-rule="evenodd" clip-rule="evenodd" d="M57.4617 57.3943C57.7288 57.5479 58.0203 57.6215 58.3095 57.6215C58.8726 57.6215 59.4224 57.3381 59.7337 56.8298C59.8919 56.5695 59.9672 56.2835 59.9671 56.0012C59.9674 55.448 59.6787 54.9085 59.1596 54.6034L51.2991 50.0115L51.2991 40.0171C51.2991 39.1217 50.5572 38.3949 49.643 38.3949C48.7289 38.3949 47.987 39.1217 47.987 40.0171V50.9329V50.9336C47.987 51.5046 48.2939 52.0345 48.793 52.3287L57.4617 57.3943Z" fill="url(#paint2_linear_0_1)"/>
<path d="M57.4617 57.3943L57.2598 57.7397L57.2623 57.7411L57.4617 57.3943ZM59.7337 56.8298L60.0748 57.0387L60.0755 57.0376L59.7337 56.8298ZM59.9671 56.0012L59.5671 56.001V56.0012L59.9671 56.0012ZM59.1596 54.6034L59.3623 54.2586L59.3614 54.2581L59.1596 54.6034ZM51.2991 50.0115H50.8991V50.2411L51.0973 50.3569L51.2991 50.0115ZM51.2991 40.0171H51.6991H51.2991ZM48.793 52.3287L48.5898 52.6733L48.5911 52.674L48.793 52.3287ZM58.3095 57.2215C58.0887 57.2215 57.8662 57.1655 57.661 57.0476L57.2623 57.7411C57.5915 57.9303 57.9519 58.0215 58.3095 58.0215V57.2215ZM59.3926 56.6209C59.1578 57.0043 58.7408 57.2215 58.3095 57.2215V58.0215C59.0044 58.0215 59.687 57.6719 60.0748 57.0387L59.3926 56.6209ZM59.5671 56.0012C59.5672 56.2119 59.5112 56.4258 59.3919 56.622L60.0755 57.0376C60.2726 56.7133 60.3672 56.3552 60.3671 56.0011L59.5671 56.0012ZM60.3671 56.0013C60.3674 55.3091 60.0061 54.637 59.3623 54.2586L58.9569 54.9483C59.3513 55.1801 59.5673 55.5868 59.5671 56.001L60.3671 56.0013ZM59.3614 54.2581L51.5008 49.6661L51.0973 50.3569L58.9579 54.9488L59.3614 54.2581ZM50.8991 40.0171L50.8991 50.0115H51.6991L51.6991 40.0171H50.8991ZM49.643 38.7949C50.3441 38.7949 50.8991 39.3503 50.8991 40.0171H51.6991C51.6991 38.893 50.7703 37.9949 49.643 37.9949V38.7949ZM48.387 40.0171C48.387 39.3503 48.942 38.7949 49.643 38.7949V37.9949C48.5158 37.9949 47.587 38.893 47.587 40.0171H48.387ZM48.387 50.9329V40.0171H47.587V50.9329H48.387ZM48.387 50.9336V50.9329H47.587V50.9336H48.387ZM48.9961 51.9841C48.6164 51.7603 48.387 51.3599 48.387 50.9336H47.587C47.587 51.6493 47.9715 52.3088 48.5898 52.6733L48.9961 51.9841ZM57.6635 57.049L48.9948 51.9833L48.5911 52.674L57.2598 57.7397L57.6635 57.049Z" fill="url(#paint3_linear_0_1)" mask="url(#path-8-inside-1_0_1)"/>
</g>
</g>
</g>
</g>
</g>
</g>
<rect x="-10.6667" y="-12" width="373.333" height="146" stroke="url(#paint4_linear_0_1)" stroke-width="2"/>
</g>
</g>
</g>
<defs>
<filter id="filter0_f_0_1" x="-347.346" y="-398.68" width="704.545" height="704.546" filterUnits="userSpaceOnUse" color-interpolation-filters="sRGB">
<feFlood flood-opacity="0" result="BackgroundImageFix"/>
<feBlend mode="normal" in="SourceGraphic" in2="BackgroundImageFix" result="shape"/>
<feGaussianBlur stdDeviation="82" result="effect1_foregroundBlur_0_1"/>
</filter>
<filter id="filter1_f_0_1" x="0.443726" y="0.274902" width="74.4844" height="73.7413" filterUnits="userSpaceOnUse" color-interpolation-filters="sRGB">
<feFlood flood-opacity="0" result="BackgroundImageFix"/>
<feBlend mode="normal" in="SourceGraphic" in2="BackgroundImageFix" result="shape"/>
<feGaussianBlur stdDeviation="12" result="effect1_foregroundBlur_0_1"/>
</filter>
<filter id="filter2_b_0_1" x="3.3399" y="2.74109" width="94.1604" height="93.2593" filterUnits="userSpaceOnUse" color-interpolation-filters="sRGB">
<feFlood flood-opacity="0" result="BackgroundImageFix"/>
<feGaussianBlur in="BackgroundImageFix" stdDeviation="12"/>
<feComposite in2="SourceAlpha" operator="in" result="effect1_backgroundBlur_0_1"/>
<feBlend mode="normal" in="SourceGraphic" in2="effect1_backgroundBlur_0_1" result="shape"/>
</filter>
<filter id="filter3_bd_0_1" x="32.987" y="23.3949" width="41.9801" height="49.2266" filterUnits="userSpaceOnUse" color-interpolation-filters="sRGB">
<feFlood flood-opacity="0" result="BackgroundImageFix"/>
<feGaussianBlur in="BackgroundImageFix" stdDeviation="7.5"/>
<feComposite in2="SourceAlpha" operator="in" result="effect1_backgroundBlur_0_1"/>
<feColorMatrix in="SourceAlpha" type="matrix" values="0 0 0 0 0 0 0 0 0 0 0 0 0 0 0 0 0 0 127 0" result="hardAlpha"/>
<feOffset dx="5" dy="5"/>
<feGaussianBlur stdDeviation="5"/>
<feColorMatrix type="matrix" values="0 0 0 0 0.577356 0 0 0 0 0.359375 0 0 0 0 0.9375 0 0 0 0.5 0"/>
<feBlend mode="normal" in2="effect1_backgroundBlur_0_1" result="effect2_dropShadow_0_1"/>
<feBlend mode="normal" in="SourceGraphic" in2="effect2_dropShadow_0_1" result="shape"/>
</filter>
<linearGradient id="paint0_linear_0_1" x1="34.0496" y1="19.9127" x2="43.7006" y2="56.6808" gradientUnits="userSpaceOnUse">
<stop stop-color="#BC94FF"/>
<stop offset="1" stop-color="#9F66FF"/>
</linearGradient>
<linearGradient id="paint1_linear_0_1" x1="35.3695" y1="32.7808" x2="62.8391" y2="67.5114" gradientUnits="userSpaceOnUse">
<stop stop-color="white" stop-opacity="0.25"/>
<stop offset="1" stop-color="white" stop-opacity="0"/>
</linearGradient>
<linearGradient id="paint2_linear_0_1" x1="59.1178" y1="41.8668" x2="45.7644" y2="42.1381" gradientUnits="userSpaceOnUse">
<stop stop-color="white"/>
<stop offset="1" stop-color="white" stop-opacity="0.2"/>
</linearGradient>
<linearGradient id="paint3_linear_0_1" x1="49.8941" y1="40.6348" x2="62.0305" y2="50.0009" gradientUnits="userSpaceOnUse">
<stop stop-color="white" stop-opacity="0.25"/>
<stop offset="1" stop-color="white" stop-opacity="0"/>
</linearGradient>
<linearGradient id="paint4_linear_0_1" x1="-11.6667" y1="-13" x2="146.742" y2="205.75" gradientUnits="userSpaceOnUse">
<stop stop-color="#306CA8"/>
<stop offset="1" stop-color="#306CA8" stop-opacity="0"/>
</linearGradient>
<clipPath id="clip0_0_1">
<rect x="-11.6667" y="-13" width="375.333" height="148" fill="white"/>
</clipPath>
</defs>
</svg>
