<svg width="20" height="20" viewBox="0 0 20 20" fill="none" xmlns="http://www.w3.org/2000/svg">
<path d="M17.4333 9.68332C17.3937 9.58103 17.3342 9.48758 17.2583 9.40832L13.0917 5.24166C13.014 5.16396 12.9217 5.10233 12.8202 5.06028C12.7187 5.01823 12.6099 4.99658 12.5 4.99658C12.2781 4.99658 12.0653 5.08474 11.9083 5.24166C11.8306 5.31936 11.769 5.4116 11.727 5.51312C11.6849 5.61464 11.6633 5.72344 11.6633 5.83333C11.6633 6.05524 11.7514 6.26807 11.9083 6.42499L14.6583 9.16666H3.33333C3.11232 9.16666 2.90036 9.25446 2.74408 9.41074C2.5878 9.56702 2.5 9.77898 2.5 9.99999C2.5 10.221 2.5878 10.433 2.74408 10.5892C2.90036 10.7455 3.11232 10.8333 3.33333 10.8333H14.6583L11.9083 13.575C11.8302 13.6525 11.7682 13.7446 11.7259 13.8462C11.6836 13.9477 11.6618 14.0566 11.6618 14.1667C11.6618 14.2767 11.6836 14.3856 11.7259 14.4871C11.7682 14.5887 11.8302 14.6809 11.9083 14.7583C11.9858 14.8364 12.078 14.8984 12.1795 14.9407C12.2811 14.983 12.39 15.0048 12.5 15.0048C12.61 15.0048 12.7189 14.983 12.8205 14.9407C12.922 14.8984 13.0142 14.8364 13.0917 14.7583L17.2583 10.5917C17.3342 10.5124 17.3937 10.419 17.4333 10.3167C17.5167 10.1138 17.5167 9.88621 17.4333 9.68332Z" fill="#00C2FF"/>
</svg>
